PathFileType	4	(X/Y/Z)	/Users/itak/Documents/Research/Walk-IL/dataset/trc/00397_00012.trc
DataRate	CameraRate	NumFrames	NumMarkers	Units	OrigDataRate	OrigDataStartFrame	OrigNumFrames
100.000000	100.000000	4	53	mm	100.000000	90	722
Frame#	Time	RPSI			LPSI			L3			STRN			T10			C7			CLAV			RBAK			LBAK			LSHO			LUPA			LAEL			LAOL			LWTS			LWPS			LFRA			LIFD			LHPS			LHTS			RSHO			RUPA			RAEL			RAOL			RWTS			RWPS			RFRA			RIFD			RHTS			RHPS			RBHD			LFHD			RFHD			LBHD			LHIP			RHIP			RASI			LASI			LKNE			LTHI			LANK			LTIP			LTOE			LMT1			LMT5			LHEE			RKNE			RTHI			RANK			RTIP			RTOE			RMT1			RMT5			RHEE			
		X1	Y1	Z1	X2	Y2	Z2	X3	Y3	Z3	X4	Y4	Z4	X5	Y5	Z5	X6	Y6	Z6	X7	Y7	Z7	X8	Y8	Z8	X9	Y9	Z9	X10	Y10	Z10	X11	Y11	Z11	X12	Y12	Z12	X13	Y13	Z13	X14	Y14	Z14	X15	Y15	Z15	X16	Y16	Z16	X17	Y17	Z17	X18	Y18	Z18	X19	Y19	Z19	X20	Y20	Z20	X21	Y21	Z21	X22	Y22	Z22	X23	Y23	Z23	X24	Y24	Z24	X25	Y25	Z25	X26	Y26	Z26	X27	Y27	Z27	X28	Y28	Z28	X29	Y29	Z29	X30	Y30	Z30	X31	Y31	Z31	X32	Y32	Z32	X33	Y33	Z33	X34	Y34	Z34	X35	Y35	Z35	X36	Y36	Z36	X37	Y37	Z37	X38	Y38	Z38	X39	Y39	Z39	X40	Y40	Z40	X41	Y41	Z41	X42	Y42	Z42	X43	Y43	Z43	X44	Y44	Z44	X45	Y45	Z45	X46	Y46	Z46	X47	Y47	Z47	X48	Y48	Z48	X49	Y49	Z49	X50	Y50	Z50	X51	Y51	Z51	X52	Y52	Z52	X53	Y53	Z53	

91	0.9	18.52886390686035	982.3703002929688	1284.22412109375	1.820497512817383	966.4335327148438	1152.79833984375	10.28237056732178	1053.426147460938	1223.227294921875	256.0838928222656	1200.446899414062	1204.57080078125	6.895982265472412	1157.170654296875	1219.1923828125	50.3646354675293	1405.262573242188	1206.622314453125	205.5624084472656	1320.76953125	1206.235961914062	8.286672592163086	1259.21435546875	1276.090942382812	33.28247451782227	1368.222900390625	1101.981811523438	119.9452209472656	1381.1337890625	1049.767822265625	96.99595642089844	1265.0576171875	978.9113159179688	114.3462753295898	1065.67138671875	956.4527587890625	54.57268142700195	1048.571899414062	1016.94384765625	212.1505432128906	853.9815673828125	1003.768249511719	160.01025390625	837.5062866210938	941.7498779296875	132.7368774414062	961.6251831054688	949.4771118164062	223.0797119140625	675.2568359375	1000.495422363281	179.0163116455078	753.0723876953125	950.8468017578125	234.2709503173828	759.2225341796875	983.3035278320312	117.938591003418	1380.173217773438	1363.07666015625	111.8311767578125	1314.811645507812	1423.145385742188	139.6542510986328	1052.222900390625	1465.983154296875	96.57607269287109	1045.59765625	1383.129028320312	264.6602172851562	839.102294921875	1404.576538085938	238.0548706054688	826.2555541992188	1471.839721679688	171.4801330566406	988.4035034179688	1475.02734375	268.7087707519531	665.7684326171875	1405.099365234375	289.9017028808594	734.9031982421875	1417.183715820312	245.0976257324219	737.9610595703125	1469.593994140625	120.28125	1600.2685546875	1286.315795898438	233.0211486816406	1582.32470703125	1121.89990234375	246.6809692382812	1595.841186523438	1243.338500976562	83.36624908447266	1581.4765625	1130.15869140625	80.43006134033203	957.5498046875	1033.697509765625	114.2028427124023	956.7372436523438	1390.152587890625	241.9134979248047	962.8413696289062	1325.993408203125	199.0105133056641	957.2094116210938	1067.753540039062	248.473388671875	479.0178833007812	1055.89208984375	211.9521026611328	612.4747924804688	1045.434448242188	12.37422180175781	87.69587707519531	1083.775512695312	124.6467208862305	275.9573974609375	1056.898071289062	217.1488800048828	46.88370895385742	1136.542846679688	144.6514282226562	59.62248992919922	1171.48193359375	131.0501556396484	49.16097640991211	1066.925048828125	-21.92378425598145	100.4344635009766	1141.045288085938	137.0258941650391	466.248291015625	1360.900268554688	186.9050445556641	728.3051147460938	1381.997680664062	25.80045890808105	56.87599182128906	1326.682739257812	131.6710357666016	338.0976257324219	1343.800903320312	207.4657135009766	41.88904190063477	1267.899658203125	131.9409332275391	45.38266754150391	1237.749633789062	109.9373016357422	47.96504592895508	1335.21630859375	-46.29689407348633	42.51413726806641	1271.034790039062	
92	0.91	21.09512519836426	982.394775390625	1284.961181640625	3.708720207214355	966.2330322265625	1153.646728515625	12.68754005432129	1053.42822265625	1224.361083984375	258.6736755371094	1200.077514648438	1203.555297851562	9.144955635070801	1157.365478515625	1220.489990234375	53.43893051147461	1405.221801757812	1207.350341796875	208.4145050048828	1320.509765625	1205.571044921875	11.57017421722412	1259.347290039062	1277.358032226562	35.30934906005859	1368.162963867188	1102.914306640625	121.4957504272461	1380.954223632812	1049.8857421875	97.48078918457031	1264.9453125	979.289794921875	114.1543045043945	1065.555541992188	956.41015625	55.50008010864258	1048.44580078125	1017.774475097656	212.5449371337891	853.802734375	1001.911010742188	159.3325042724609	837.4265747070312	940.7489013671875	132.3405914306641	961.5460205078125	949.1051025390625	223.3431701660156	675.0792236328125	998.2479248046875	178.4565734863281	752.96484375	949.4039306640625	234.2393035888672	759.0404052734375	980.9713745117188	122.3621520996094	1380.11865234375	1363.149291992188	116.6395645141602	1314.792602539062	1423.240234375	144.6418914794922	1052.300415039062	1466.356811523438	100.5131683349609	1045.68408203125	1384.123168945312	268.8731079101562	839.0003051757812	1403.929809570312	242.9754333496094	826.2445068359375	1471.458740234375	176.5365905761719	988.4447631835938	1475.134155273438	272.8074340820312	665.61279296875	1404.575805664062	294.2641906738281	734.7930908203125	1416.359497070312	249.9323425292969	737.9310302734375	1469.228149414062	124.3863372802734	1600.101806640625	1286.237915039062	235.7439727783203	1581.984497070312	1121.05615234375	250.4144897460938	1595.428466796875	1242.324340820312	86.13807678222656	1581.416381835938	1130.579711914062	81.71786499023438	957.7213134765625	1034.115234375	117.143798828125	956.6450805664062	1390.433837890625	244.6575775146484	962.3890380859375	1325.792236328125	200.5345001220703	957.4049682617188	1067.787841796875	258.2347717285156	481.3051147460938	1054.652099609375	219.1390533447266	614.24267578125	1044.548828125	18.67401695251465	92.37197113037109	1084.3505859375	133.490478515625	279.017578125	1056.656372070312	222.4546203613281	48.38831329345703	1136.943237304688	150.3986053466797	62.06354522705078	1172.115356445312	136.5905914306641	51.31438446044922	1067.393188476562	-15.20709323883057	105.8219146728516	1141.59423828125	137.7702026367188	466.0176696777344	1361.185424804688	188.8430633544922	727.951904296875	1381.993896484375	25.78704071044922	56.87223052978516	1326.692504882812	132.205078125	337.8975524902344	1344.047119140625	207.45166015625	41.90536880493164	1267.927490234375	131.9583892822266	45.36479568481445	1237.7578125	109.9176940917969	47.91994094848633	1335.285522460938	-46.39713668823242	42.50293350219727	1270.959228515625	
93	0.92	23.81219482421875	982.4430541992188	1285.548828125	5.843145370483398	966.091552734375	1154.340942382812	15.31143665313721	1053.429321289062	1225.370483398438	261.3820190429688	1199.743774414062	1202.516235351562	11.49525928497314	1157.550903320312	1221.707885742188	56.64468765258789	1405.200317382812	1208.02001953125	211.3863830566406	1320.299072265625	1204.8466796875	15.01827239990234	1259.52099609375	1278.567260742188	37.48334121704102	1368.097534179688	1103.797241210938	123.1802825927734	1380.816650390625	1049.945190429688	98.05754852294922	1264.845703125	979.6431274414062	113.9716796875	1065.462646484375	956.3756103515625	56.55312347412109	1048.336547851562	1018.67626953125	212.9390106201172	853.6158447265625	999.9515380859375	158.6167144775391	837.3431396484375	939.7362670898438	131.9024963378906	961.4635009765625	948.71630859375	223.4968719482422	674.883056640625	995.9609985351562	177.8246612548828	752.8466796875	947.9559936523438	234.1357421875	758.8306274414062	978.560302734375	126.9009857177734	1380.10791015625	1363.150024414062	121.5998229980469	1314.836059570312	1423.282348632812	149.8187561035156	1052.43115234375	1466.649047851562	104.6123504638672	1045.839721679688	1385.0791015625	273.2289123535156	838.9358520507812	1403.18017578125	248.0615692138672	826.2760620117188	1470.985595703125	181.7716674804688	988.5379028320312	1475.148071289062	276.99267578125	665.5062255859375	1403.937255859375	298.7648315429688	734.720458984375	1415.41943359375	254.887451171875	737.9342041015625	1468.773315429688	128.6335754394531	1599.948974609375	1286.125244140625	238.6085815429688	1581.677490234375	1120.1181640625	254.2763977050781	1595.040283203125	1241.235961914062	89.05120849609375	1581.397583007812	1130.897705078125	83.40534973144531	957.955078125	1034.434326171875	120.1189956665039	956.580810546875	1390.665649414062	247.5099792480469	961.9541015625	1325.6171875	202.3231811523438	957.661865234375	1067.829956054688	267.6152954101562	483.6491394042969	1053.214111328125	225.9337310791016	616.06103515625	1043.450317382812	26.23755645751953	96.16439056396484	1084.919311523438	142.6800537109375	281.6861267089844	1056.302368164062	229.2888641357422	50.27025604248047	1137.39892578125	157.546630859375	64.54052734375	1172.765747070312	143.6243133544922	53.4393196105957	1067.890014648438	-7.348451137542725	110.1563262939453	1142.146240234375	138.4825592041016	465.7928771972656	1361.457885742188	190.7597045898438	727.6013793945312	1381.94287109375	25.77246856689453	56.86750793457031	1326.705322265625	132.67333984375	337.7075805664062	1344.284301757812	207.4447174072266	41.93561553955078	1267.97021484375	131.9903869628906	45.35947036743164	1237.765625	109.9033279418945	47.87008285522461	1335.36767578125	-46.4918212890625	42.49660110473633	1270.88037109375	
94	0.93	26.66547393798828	982.4855346679688	1285.982055664062	8.203130722045898	965.9951782226562	1154.870849609375	18.11525344848633	1053.439697265625	1226.227783203125	264.2183837890625	1199.440551757812	1201.476440429688	13.96673011779785	1157.726928710938	1222.819091796875	59.98841094970703	1405.195922851562	1208.623291015625	214.4912872314453	1320.124267578125	1204.082397460938	18.63583946228027	1259.7216796875	1279.69189453125	39.81938552856445	1368.0244140625	1104.624267578125	125.0213928222656	1380.697875976562	1049.948852539062	98.75877380371094	1264.744506835938	979.9728393554688	113.8175048828125	1065.381469726562	956.3526611328125	57.73189163208008	1048.23779296875	1019.6484375	213.3253631591797	853.4046020507812	997.8966674804688	157.8661651611328	837.239990234375	938.7197265625	131.4296569824219	961.3628540039062	948.3134155273438	223.5501098632812	674.6524047851562	993.6370849609375	177.12451171875	752.7041625976562	946.510009765625	233.9715270996094	758.5848388671875	976.07421875	131.5437622070312	1380.130126953125	1363.087768554688	126.6949157714844	1314.925415039062	1423.274291992188	155.1813659667969	1052.59814453125	1466.85302734375	108.8723373413086	1046.05078125	1385.9990234375	277.7288513183594	838.9019165039062	1402.333618164062	253.3094787597656	826.3421630859375	1470.421142578125	187.1758270263672	988.6710205078125	1475.06689453125	281.2907409667969	665.4502563476562	1403.19140625	303.4000244140625	734.6790771484375	1414.382446289062	259.9662475585938	737.9652709960938	1468.235961914062	133.0184478759766	1599.811889648438	1285.9677734375	241.6147766113281	1581.396606445312	1119.083618164062	258.2691955566406	1594.67822265625	1240.06982421875	92.10160064697266	1581.4033203125	1131.12255859375	85.45625305175781	958.25634765625	1034.663818359375	123.1324157714844	956.5234985351562	1390.841674804688	250.4758605957031	961.53564453125	1325.46484375	204.3861541748047	957.973388671875	1067.874145507812	276.5446472167969	486.0245971679688	1051.61865234375	232.3341217041016	617.9002685546875	1042.198364257812	35.10487747192383	98.95136260986328	1085.48095703125	152.1694488525391	283.8935852050781	1055.850830078125	237.7612152099609	52.34743118286133	1137.735595703125	166.2486572265625	66.88352203369141	1173.314208984375	152.1998901367188	55.40627670288086	1068.323120117188	1.747458696365356	113.2902450561523	1142.73193359375	139.1866455078125	465.5732116699219	1361.699462890625	192.6770172119141	727.2401733398438	1381.836059570312	25.75704002380371	56.86245727539062	1326.714965820312	133.0837097167969	337.5256958007812	1344.495849609375	207.4466094970703	41.97454071044922	1268.028198242188	132.0409393310547	45.36051177978516	1237.77099609375	109.8984298706055	47.81931304931641	1335.454833984375	-46.57181167602539	42.50275039672852	1270.800537109375	
